<svg id="svg" xmlns="http://www.w3.org/2000/svg" xmlns:xlink="http://www.w3.org/1999/xlink" width="400" height="400"
    viewBox="0, 0, 400,400">
    <g id="svgg">
        <path id="path0"
            d="M330.303 22.167 C 256.728 30.946,267.175 24.189,190.732 112.454 L 120.134 193.971 104.704 181.834 C 66.199 151.546,37.541 208.000,72.520 245.234 L 86.828 260.465 52.505 296.449 C 15.702 335.033,11.035 350.429,30.303 369.697 C 49.540 388.933,64.969 384.296,103.266 347.766 L 138.966 313.714 157.827 329.584 C 200.398 365.406,254.775 332.892,217.915 293.656 L 205.527 280.469 287.612 208.990 C 332.759 169.676,369.718 137.252,369.743 136.937 C 369.768 136.622,372.431 113.383,375.660 85.296 C 379.819 49.118,379.589 31.890,374.872 26.205 C 368.265 18.245,365.373 17.983,330.303 22.167 "
            stroke="none" fill="#555" fill-rule="evenodd"></path>
    </g>
</svg>